<svg
  viewBox="0 0 100 100"
  fill="none"
  xmlns="http://www.w3.org/2000/svg"
>
  <defs>
    <radialGradient id="hubGlow" cx="50%" cy="50%" r="50%">
      <stop offset="0%" stopColor="#D97757" stopOpacity="1" />
      <stop offset="50%" stopColor="#D97757" stopOpacity="0.75" />
      <stop offset="100%" stopColor="#D97757" stopOpacity="0" />
    </radialGradient>
  </defs>

  <g stroke="#D97757" stroke-width="1.2" opacity="0.35">
    <line x1="50" y1="12" x2="50" y2="28" />
    <line x1="50" y1="72" x2="50" y2="88" />
    <line x1="12" y1="50" x2="28" y2="50" />
    <line x1="72" y1="50" x2="88" y2="50" />
  </g>

  <circle cx="50" cy="50" r="44" stroke="#D97757" stroke-width="1" stroke-dasharray="3 6" opacity="0.2" />

  <circle cx="50" cy="50" r="36" stroke="#D97757" stroke-width="1.5" opacity="0.15" />
  <circle cx="50" cy="50" r="26" stroke="#D97757" stroke-width="1" stroke-dasharray="4 2" opacity="0.3" />
  <circle cx="50" cy="50" r="18" stroke="#D97757" stroke-width="1.2" opacity="0.45" />

  <g fill="#D97757">
    <polygon points="68.00,50.00 86.00,50.00 92.00,50.00 76.00,50.00" opacity="0.85" />
    <polygon points="62.73,62.73 75.46,75.46 80.60,78.83 68.38,68.38" opacity="0.85" />
    <polygon points="50.00,68.00 50.00,86.00 50.00,92.00 50.00,76.00" opacity="0.85" />
    <polygon points="37.27,62.73 24.54,75.46 19.40,78.83 31.62,68.38" opacity="0.85" />
    <polygon points="32.00,50.00 14.00,50.00 8.00,50.00 24.00,50.00" opacity="0.85" />
    <polygon points="37.27,37.27 24.54,24.54 19.40,21.17 31.62,31.62" opacity="0.85" />
    <polygon points="50.00,32.00 50.00,14.00 50.00,8.00 50.00,24.00" opacity="0.85" />
    <polygon points="62.73,37.27 75.46,24.54 80.60,21.17 68.38,31.62" opacity="0.85" />
  </g>

  <g fill="#D97757" opacity="0.75">
    <circle cx="50" cy="8" r="1.5" />
    <circle cx="92" cy="50" r="1.5" />
    <circle cx="50" cy="92" r="1.5" />
    <circle cx="8" cy="50" r="1.5" />
  </g>

  <circle cx="50" cy="50" r="12" fill="url(#hubGlow)" opacity="0.4" />

  <g stroke="#D97757" stroke-width="1.2" opacity="0.8">
    <line x1="59.00,50.00" y1="59.00,50.00" x2="56.36,56.36" y2="56.36,56.36" />
    <line x1="56.36,56.36" y1="56.36,56.36" x2="50.00,59.00" y2="50.00,59.00" />
    <line x1="50.00,59.00" y1="50.00,59.00" x2="43.64,56.36" y2="43.64,56.36" />
    <line x1="43.64,56.36" y1="43.64,56.36" x2="41.00,50.00" y2="41.00,50.00" />
    <line x1="41.00,50.00" y1="41.00,50.00" x2="43.64,43.64" y2="43.64,43.64" />
    <line x1="43.64,43.64" y1="43.64,43.64" x2="50.00,41.00" y2="50.00,41.00" />
    <line x1="50.00,41.00" y1="50.00,41.00" x2="56.36,43.64" y2="56.36,43.64" />
    <line x1="56.36,43.64" y1="56.36,43.64" x2="59.00,50.00" y2="59.00,50.00" />
  </g>

  <circle cx="50" cy="50" r="3.5" fill="#D97757" />
</svg>
